<svg xmlns="http://www.w3.org/2000/svg" xmlns:xlink="http://www.w3.org/1999/xlink" width="720" height="452" viewBox="0 0 720 452" font-family="'IBM Plex Sans',system-ui,sans-serif">
<!-- GENERATED — browser-framed camera tour of the TRON workflow diagram. -->
<defs>
<style>
  .djs-element[data-element-id="pool"] .djs-visual>rect,
  .djs-element[data-element-id^="lane_"] .djs-visual>rect{fill:#FDFAF5 !important;}
  .n-seat .djs-visual>rect{fill:#FDECD8 !important;stroke:#E2711D !important;}
  .n-engine .djs-visual>rect{fill:#fff !important;stroke:#433E3A !important;}
  .n-architect .djs-visual>rect{fill:#16A34A !important;stroke:#166534 !important;}
  .n-architect .djs-visual>text,.n-architect text{fill:#fff !important;}
  .n-operator .djs-visual>rect{fill:#EFF6FF !important;stroke:#2563EB !important;}
  .n-operator .djs-visual>text,.n-operator text{fill:#2563EB !important;}
  text{font-family:'IBM Plex Sans',system-ui,sans-serif;}
</style>
<clipPath id="win"><rect x="0" y="0" width="720" height="452" rx="11"/></clipPath>
<clipPath id="body"><rect x="0" y="34" width="720" height="418"/></clipPath>
</defs>
<g clip-path="url(#win)">
  <rect x="0" y="0" width="720" height="452" fill="#FEF3E2"/>
  <g clip-path="url(#body)">
    <rect x="0" y="34" width="720" height="418" fill="#FEF3E2"/>
    <g class="cam-scale">
      <animateTransform attributeName="transform" type="scale" dur="16s" repeatCount="indefinite" calcMode="spline" keyTimes="0.00;0.10;0.22;0.34;0.46;0.58;0.70;0.82;1.00" keySplines="0.4 0 0.2 1 0.4 0 0.2 1 0.4 0 0.2 1 0.4 0 0.2 1 0.4 0 0.2 1 0.4 0 0.2 1 0.4 0 0.2 1 0.4 0 0.2 1" values="0.484 0.484;0.484 0.484;1.317 1.317;1.317 1.317;0.796 0.796;0.796 0.796;1.035 1.035;1.035 1.035;0.484 0.484"/>
      <g class="cam-pan">
        <animateTransform attributeName="transform" type="translate" dur="16s" repeatCount="indefinite" calcMode="spline" keyTimes="0.00;0.10;0.22;0.34;0.46;0.58;0.70;0.82;1.00" keySplines="0.4 0 0.2 1 0.4 0 0.2 1 0.4 0 0.2 1 0.4 0 0.2 1 0.4 0 0.2 1 0.4 0 0.2 1 0.4 0 0.2 1 0.4 0 0.2 1" values="-74.5 231.8;-74.5 231.8;-104.1 2.5;-104.1 2.5;-641.8 173.2;-641.8 173.2;-284.2 -173.2;-284.2 -173.2;-74.5 231.8"/>
        <g class="djs-group"><g class="djs-element djs-shape" data-element-id="pool" style="display: block;" transform="matrix(1 0 0 1 40 40)"><g class="djs-visual"><rect x="0" y="0" width="1526" height="460" rx="0" ry="0" style="stroke-linecap: round; stroke-linejoin: round; stroke: rgb(34, 36, 42); stroke-width: 1.5px; fill: white; fill-opacity: 0.95;"/><path style="fill: none; stroke-linecap: round; stroke-linejoin: round; stroke: rgb(34, 36, 42); stroke-width: 1.5px;" d="M30,0L30,460"/><text lineHeight="1.2" class="djs-label" style="font-family: Arial, sans-serif; font-size: 12px; font-weight: normal; fill: rgb(34, 36, 42);" transform="matrix(-1.83697e-16 -1 1 -1.83697e-16 0 460)"><tspan x="194.484375" y="18.6">workflow.toml</tspan></text></g><rect class="djs-hit djs-hit-all" x="0" y="0" width="1526" height="460" style="fill: none; stroke-opacity: 0; stroke: white; stroke-width: 15px;"/><rect x="-5" y="-5" rx="4" width="1536" height="470" class="djs-outline" style="fill: none;"/></g><g class="djs-children"><g class="djs-group"><g class="djs-element djs-shape" data-element-id="lane_operator" style="display: block;" transform="matrix(1 0 0 1 70 408)"><g class="djs-visual"><rect x="0" y="0" width="1496" height="92" rx="0" ry="0" style="stroke-linecap: round; stroke-linejoin: round; stroke: rgb(34, 36, 42); stroke-width: 1.5px; fill: white; fill-opacity: 0.25;"/><text lineHeight="1.2" class="djs-label" style="font-family: Arial, sans-serif; font-size: 12px; font-weight: normal; fill: rgb(34, 36, 42);" transform="matrix(-1.83697e-16 -1 1 -1.83697e-16 0 92)"><tspan x="12.7158203125" y="18.6">OPERATOR</tspan></text></g><rect class="djs-hit djs-hit-all" x="0" y="0" width="1496" height="92" style="fill: none; stroke-opacity: 0; stroke: white; stroke-width: 15px;"/><rect x="-5" y="-5" rx="4" width="1506" height="102" class="djs-outline" style="fill: none;"/></g></g><g class="djs-group"><g class="djs-element djs-shape" data-element-id="lane_architect" style="display: block;" transform="matrix(1 0 0 1 70 316)"><g class="djs-visual"><rect x="0" y="0" width="1496" height="92" rx="0" ry="0" style="stroke-linecap: round; stroke-linejoin: round; stroke: rgb(34, 36, 42); stroke-width: 1.5px; fill: white; fill-opacity: 0.25;"/><text lineHeight="1.2" class="djs-label" style="font-family: Arial, sans-serif; font-size: 12px; font-weight: normal; fill: rgb(34, 36, 42);" transform="matrix(-1.83697e-16 -1 1 -1.83697e-16 0 92)"><tspan x="11.33203125" y="18.6">ARCHITECT</tspan></text></g><rect class="djs-hit djs-hit-all" x="0" y="0" width="1496" height="92" style="fill: none; stroke-opacity: 0; stroke: white; stroke-width: 15px;"/><rect x="-5" y="-5" rx="4" width="1506" height="102" class="djs-outline" style="fill: none;"/></g></g><g class="djs-group"><g class="djs-element djs-shape" data-element-id="lane_reviewer" style="display: block;" transform="matrix(1 0 0 1 70 224)"><g class="djs-visual"><rect x="0" y="0" width="1496" height="92" rx="0" ry="0" style="stroke-linecap: round; stroke-linejoin: round; stroke: rgb(34, 36, 42); stroke-width: 1.5px; fill: white; fill-opacity: 0.25;"/><text lineHeight="1.2" class="djs-label" style="font-family: Arial, sans-serif; font-size: 12px; font-weight: normal; fill: rgb(34, 36, 42);" transform="matrix(-1.83697e-16 -1 1 -1.83697e-16 0 92)"><tspan x="13.8291015625" y="18.6">REVIEWER</tspan></text></g><rect class="djs-hit djs-hit-all" x="0" y="0" width="1496" height="92" style="fill: none; stroke-opacity: 0; stroke: white; stroke-width: 15px;"/><rect x="-5" y="-5" rx="4" width="1506" height="102" class="djs-outline" style="fill: none;"/></g></g><g class="djs-group"><g class="djs-element djs-shape" data-element-id="lane_worker" style="display: block;" transform="matrix(1 0 0 1 70 132)"><g class="djs-visual"><rect x="0" y="0" width="1496" height="92" rx="0" ry="0" style="stroke-linecap: round; stroke-linejoin: round; stroke: rgb(34, 36, 42); stroke-width: 1.5px; fill: white; fill-opacity: 0.25;"/><text lineHeight="1.2" class="djs-label" style="font-family: Arial, sans-serif; font-size: 12px; font-weight: normal; fill: rgb(34, 36, 42);" transform="matrix(-1.83697e-16 -1 1 -1.83697e-16 0 92)"><tspan x="18.8330078125" y="18.6">WORKER</tspan></text></g><rect class="djs-hit djs-hit-all" x="0" y="0" width="1496" height="92" style="fill: none; stroke-opacity: 0; stroke: white; stroke-width: 15px;"/><rect x="-5" y="-5" rx="4" width="1506" height="102" class="djs-outline" style="fill: none;"/></g></g><g class="djs-group"><g class="djs-element djs-shape" data-element-id="lane_engine" style="display: block;" transform="matrix(1 0 0 1 70 40)"><g class="djs-visual"><rect x="0" y="0" width="1496" height="92" rx="0" ry="0" style="stroke-linecap: round; stroke-linejoin: round; stroke: rgb(34, 36, 42); stroke-width: 1.5px; fill: white; fill-opacity: 0.25;"/><text lineHeight="1.2" class="djs-label" style="font-family: Arial, sans-serif; font-size: 12px; font-weight: normal; fill: rgb(34, 36, 42);" transform="matrix(-1.83697e-16 -1 1 -1.83697e-16 0 92)"><tspan x="22.9921875" y="18.6">ENGINE</tspan></text></g><rect class="djs-hit djs-hit-all" x="0" y="0" width="1496" height="92" style="fill: none; stroke-opacity: 0; stroke: white; stroke-width: 15px;"/><rect x="-5" y="-5" rx="4" width="1506" height="102" class="djs-outline" style="fill: none;"/></g></g><g class="djs-group"><g class="djs-element djs-shape n-event" data-element-id="start" style="display: block;" transform="matrix(1 0 0 1 152 71)"><g class="djs-visual"><circle cx="15" cy="15" r="15" style="stroke-linecap: round; stroke-linejoin: round; stroke: rgb(34, 36, 42); stroke-width: 2px; fill: white; fill-opacity: 0.95;"/></g><rect class="djs-hit djs-hit-all" x="0" y="0" width="30" height="30" style="fill: none; stroke-opacity: 0; stroke: white; stroke-width: 15px;"/><circle cx="15" cy="15" r="20" class="djs-outline" style="fill: none;"/></g></g><g class="djs-group"><g class="djs-element djs-shape" data-element-id="start_label" style="display: block;" transform="matrix(1 0 0 1 143 104)"><g class="djs-visual"><text lineHeight="1.2" class="djs-label" style="font-family: Arial, sans-serif; font-size: 11px; font-weight: normal; fill: rgb(34, 36, 42);"><tspan x="0" y="9.899999999999999">&gt;tron start</tspan></text></g><rect class="djs-hit djs-hit-all" x="0" y="0" width="50" height="14" style="fill: none; stroke-opacity: 0; stroke: white; stroke-width: 15px;"/><rect x="-5" y="-5" rx="4" width="60" height="24" class="djs-outline" style="fill: none;"/></g></g><g class="djs-group"><g class="djs-element djs-shape n-seat has-note" data-element-id="task_build" style="display: block;" transform="matrix(1 0 0 1 289 149)"><g class="djs-visual"><rect x="0" y="0" width="128" height="58" rx="10" ry="10" style="stroke-linecap: round; stroke-linejoin: round; stroke: rgb(34, 36, 42); stroke-width: 2px; fill: white; fill-opacity: 0.95;"/><text lineHeight="1.2" class="djs-label" style="font-family: Arial, sans-serif; font-size: 12px; font-weight: normal; fill: rgb(34, 36, 42);"><tspan x="50.65625" y="32.6">Build</tspan></text></g><rect class="djs-hit djs-hit-all" x="0" y="0" width="128" height="58" style="fill: none; stroke-opacity: 0; stroke: white; stroke-width: 15px;"/><rect x="-5" y="-5" rx="14" width="138" height="68" class="djs-outline" style="fill: none;"/></g></g><g class="djs-group"><g class="djs-element djs-shape n-gate has-note" data-element-id="gw_build" style="display: block;" transform="matrix(1 0 0 1 332 65)"><g class="djs-visual"><polygon points="21,0 42,21 21,42 0,21" style="stroke-linecap: round; stroke-linejoin: round; stroke: rgb(34, 36, 42); stroke-width: 2px; fill: white; fill-opacity: 0.95;"/><path d="m 13.44,12.6 6.24,8.16 -6.24,8.16 2.88,0 4.8,-6.269952 4.8,6.269952 2.88,0 -6.24,-8.16 6.24,-8.16 -2.88,0 -4.8,6.269952 -4.8,-6.269952 -2.88,0 z" style="fill: rgb(34, 36, 42); stroke-linecap: round; stroke-linejoin: round; stroke: rgb(34, 36, 42); stroke-width: 1px;"/></g><rect class="djs-hit djs-hit-all" x="0" y="0" width="42" height="42" style="fill: none; stroke-opacity: 0; stroke: white; stroke-width: 15px;"/><rect x="2" y="2" rx="4" width="38" height="38" class="djs-outline" style="transform-box: fill-box; transform: rotate(45deg); transform-origin: center center; fill: none;"/></g></g><g class="djs-group"><g class="djs-element djs-shape" data-element-id="gw_build_label" style="display: block;" transform="matrix(1 0 0 1 337 44)"><g class="djs-visual"><text lineHeight="1.2" class="djs-label" style="font-family: Arial, sans-serif; font-size: 11px; font-weight: normal; fill: rgb(34, 36, 42);"><tspan x="0" y="9.899999999999999">Done?</tspan></text></g><rect class="djs-hit djs-hit-all" x="0" y="0" width="33" height="14" style="fill: none; stroke-opacity: 0; stroke: white; stroke-width: 15px;"/><rect x="-5" y="-5" rx="4" width="43" height="24" class="djs-outline" style="fill: none;"/></g></g><g class="djs-group"><g class="djs-element djs-shape n-seat has-note" data-element-id="task_review" style="display: block;" transform="matrix(1 0 0 1 475 241)"><g class="djs-visual"><rect x="0" y="0" width="128" height="58" rx="10" ry="10" style="stroke-linecap: round; stroke-linejoin: round; stroke: rgb(34, 36, 42); stroke-width: 2px; fill: white; fill-opacity: 0.95;"/><text lineHeight="1.2" class="djs-label" style="font-family: Arial, sans-serif; font-size: 12px; font-weight: normal; fill: rgb(34, 36, 42);"><tspan x="44.16015625" y="32.6">Review</tspan></text></g><rect class="djs-hit djs-hit-all" x="0" y="0" width="128" height="58" style="fill: none; stroke-opacity: 0; stroke: white; stroke-width: 15px;"/><rect x="-5" y="-5" rx="14" width="138" height="68" class="djs-outline" style="fill: none;"/></g></g><g class="djs-group"><g class="djs-element djs-shape n-gate has-note" data-element-id="gw_review" style="display: block;" transform="matrix(1 0 0 1 518 65)"><g class="djs-visual"><polygon points="21,0 42,21 21,42 0,21" style="stroke-linecap: round; stroke-linejoin: round; stroke: rgb(34, 36, 42); stroke-width: 2px; fill: white; fill-opacity: 0.95;"/><path d="m 13.44,12.6 6.24,8.16 -6.24,8.16 2.88,0 4.8,-6.269952 4.8,6.269952 2.88,0 -6.24,-8.16 6.24,-8.16 -2.88,0 -4.8,6.269952 -4.8,-6.269952 -2.88,0 z" style="fill: rgb(34, 36, 42); stroke-linecap: round; stroke-linejoin: round; stroke: rgb(34, 36, 42); stroke-width: 1px;"/></g><rect class="djs-hit djs-hit-all" x="0" y="0" width="42" height="42" style="fill: none; stroke-opacity: 0; stroke: white; stroke-width: 15px;"/><rect x="2" y="2" rx="4" width="38" height="38" class="djs-outline" style="transform-box: fill-box; transform: rotate(45deg); transform-origin: center center; fill: none;"/></g></g><g class="djs-group"><g class="djs-element djs-shape" data-element-id="gw_review_label" style="display: block;" transform="matrix(1 0 0 1 513 44)"><g class="djs-visual"><text lineHeight="1.2" class="djs-label" style="font-family: Arial, sans-serif; font-size: 11px; font-weight: normal; fill: rgb(34, 36, 42);"><tspan x="0" y="9.899999999999999">Approved?</tspan></text></g><rect class="djs-hit djs-hit-all" x="0" y="0" width="54" height="14" style="fill: none; stroke-opacity: 0; stroke: white; stroke-width: 15px;"/><rect x="-5" y="-5" rx="4" width="64" height="24" class="djs-outline" style="fill: none;"/></g></g><g class="djs-group"><g class="djs-element djs-shape n-seat has-note" data-element-id="task_merge" style="display: block;" transform="matrix(1 0 0 1 661 149)"><g class="djs-visual"><rect x="0" y="0" width="128" height="58" rx="10" ry="10" style="stroke-linecap: round; stroke-linejoin: round; stroke: rgb(34, 36, 42); stroke-width: 2px; fill: white; fill-opacity: 0.95;"/><text lineHeight="1.2" class="djs-label" style="font-family: Arial, sans-serif; font-size: 12px; font-weight: normal; fill: rgb(34, 36, 42);"><tspan x="46.830078125" y="32.6">Merge</tspan></text></g><rect class="djs-hit djs-hit-all" x="0" y="0" width="128" height="58" style="fill: none; stroke-opacity: 0; stroke: white; stroke-width: 15px;"/><rect x="-5" y="-5" rx="14" width="138" height="68" class="djs-outline" style="fill: none;"/></g></g><g class="djs-group"><g class="djs-element djs-shape n-gate has-note" data-element-id="gw_merge" style="display: block;" transform="matrix(1 0 0 1 704 65)"><g class="djs-visual"><polygon points="21,0 42,21 21,42 0,21" style="stroke-linecap: round; stroke-linejoin: round; stroke: rgb(34, 36, 42); stroke-width: 2px; fill: white; fill-opacity: 0.95;"/><path d="m 13.44,12.6 6.24,8.16 -6.24,8.16 2.88,0 4.8,-6.269952 4.8,6.269952 2.88,0 -6.24,-8.16 6.24,-8.16 -2.88,0 -4.8,6.269952 -4.8,-6.269952 -2.88,0 z" style="fill: rgb(34, 36, 42); stroke-linecap: round; stroke-linejoin: round; stroke: rgb(34, 36, 42); stroke-width: 1px;"/></g><rect class="djs-hit djs-hit-all" x="0" y="0" width="42" height="42" style="fill: none; stroke-opacity: 0; stroke: white; stroke-width: 15px;"/><rect x="2" y="2" rx="4" width="38" height="38" class="djs-outline" style="transform-box: fill-box; transform: rotate(45deg); transform-origin: center center; fill: none;"/></g></g><g class="djs-group"><g class="djs-element djs-shape" data-element-id="gw_merge_label" style="display: block;" transform="matrix(1 0 0 1 704 44)"><g class="djs-visual"><text lineHeight="1.2" class="djs-label" style="font-family: Arial, sans-serif; font-size: 11px; font-weight: normal; fill: rgb(34, 36, 42);"><tspan x="0" y="9.899999999999999">Merged?</tspan></text></g><rect class="djs-hit djs-hit-all" x="0" y="0" width="44" height="14" style="fill: none; stroke-opacity: 0; stroke: white; stroke-width: 15px;"/><rect x="-5" y="-5" rx="4" width="54" height="24" class="djs-outline" style="fill: none;"/></g></g><g class="djs-group"><g class="djs-element djs-shape n-engine has-note" data-element-id="land_merge" style="display: block;" transform="matrix(1 0 0 1 847 57)"><g class="djs-visual"><rect x="0" y="0" width="128" height="58" rx="10" ry="10" style="stroke-linecap: round; stroke-linejoin: round; stroke: rgb(34, 36, 42); stroke-width: 2px; fill: white; fill-opacity: 0.95;"/><text lineHeight="1.2" class="djs-label" style="font-family: Arial, sans-serif; font-size: 12px; font-weight: normal; fill: rgb(34, 36, 42);"><tspan x="42.3046875" y="25.4">Land on</tspan><tspan x="40.1533203125" y="39.8">the trunk</tspan></text></g><rect class="djs-hit djs-hit-all" x="0" y="0" width="128" height="58" style="fill: none; stroke-opacity: 0; stroke: white; stroke-width: 15px;"/><rect x="-5" y="-5" rx="14" width="138" height="68" class="djs-outline" style="fill: none;"/></g></g><g class="djs-group"><g class="djs-element djs-shape n-seat has-note" data-element-id="task_wrap" style="display: block;" transform="matrix(1 0 0 1 1033 149)"><g class="djs-visual"><rect x="0" y="0" width="128" height="58" rx="10" ry="10" style="stroke-linecap: round; stroke-linejoin: round; stroke: rgb(34, 36, 42); stroke-width: 2px; fill: white; fill-opacity: 0.95;"/><text lineHeight="1.2" class="djs-label" style="font-family: Arial, sans-serif; font-size: 12px; font-weight: normal; fill: rgb(34, 36, 42);"><tspan x="49.6103515625" y="32.6">Wrap</tspan></text></g><rect class="djs-hit djs-hit-all" x="0" y="0" width="128" height="58" style="fill: none; stroke-opacity: 0; stroke: white; stroke-width: 15px;"/><rect x="-5" y="-5" rx="14" width="138" height="68" class="djs-outline" style="fill: none;"/></g></g><g class="djs-group"><g class="djs-element djs-shape n-gate has-note" data-element-id="gw_wrap" style="display: block;" transform="matrix(1 0 0 1 1076 65)"><g class="djs-visual"><polygon points="21,0 42,21 21,42 0,21" style="stroke-linecap: round; stroke-linejoin: round; stroke: rgb(34, 36, 42); stroke-width: 2px; fill: white; fill-opacity: 0.95;"/><path d="m 13.44,12.6 6.24,8.16 -6.24,8.16 2.88,0 4.8,-6.269952 4.8,6.269952 2.88,0 -6.24,-8.16 6.24,-8.16 -2.88,0 -4.8,6.269952 -4.8,-6.269952 -2.88,0 z" style="fill: rgb(34, 36, 42); stroke-linecap: round; stroke-linejoin: round; stroke: rgb(34, 36, 42); stroke-width: 1px;"/></g><rect class="djs-hit djs-hit-all" x="0" y="0" width="42" height="42" style="fill: none; stroke-opacity: 0; stroke: white; stroke-width: 15px;"/><rect x="2" y="2" rx="4" width="38" height="38" class="djs-outline" style="transform-box: fill-box; transform: rotate(45deg); transform-origin: center center; fill: none;"/></g></g><g class="djs-group"><g class="djs-element djs-shape" data-element-id="gw_wrap_label" style="display: block;" transform="matrix(1 0 0 1 1072 44)"><g class="djs-visual"><text lineHeight="1.2" class="djs-label" style="font-family: Arial, sans-serif; font-size: 11px; font-weight: normal; fill: rgb(34, 36, 42);"><tspan x="0" y="9.899999999999999">Wrapped?</tspan></text></g><rect class="djs-hit djs-hit-all" x="0" y="0" width="51" height="14" style="fill: none; stroke-opacity: 0; stroke: white; stroke-width: 15px;"/><rect x="-5" y="-5" rx="4" width="61" height="24" class="djs-outline" style="fill: none;"/></g></g><g class="djs-group"><g class="djs-element djs-shape n-engine has-note" data-element-id="land_wrap" style="display: block;" transform="matrix(1 0 0 1 1219 57)"><g class="djs-visual"><rect x="0" y="0" width="128" height="58" rx="10" ry="10" style="stroke-linecap: round; stroke-linejoin: round; stroke: rgb(34, 36, 42); stroke-width: 2px; fill: white; fill-opacity: 0.95;"/><text lineHeight="1.2" class="djs-label" style="font-family: Arial, sans-serif; font-size: 12px; font-weight: normal; fill: rgb(34, 36, 42);"><tspan x="42.3046875" y="25.4">Land on</tspan><tspan x="40.1533203125" y="39.8">the trunk</tspan></text></g><rect class="djs-hit djs-hit-all" x="0" y="0" width="128" height="58" style="fill: none; stroke-opacity: 0; stroke: white; stroke-width: 15px;"/><rect x="-5" y="-5" rx="14" width="138" height="68" class="djs-outline" style="fill: none;"/></g></g><g class="djs-group"><g class="djs-element djs-shape n-event has-note" data-element-id="end" style="display: block;" transform="matrix(1 0 0 1 1454 71)"><g class="djs-visual"><circle cx="15" cy="15" r="15" style="stroke-linecap: round; stroke-linejoin: round; stroke: rgb(34, 36, 42); stroke-width: 4px; fill: white; fill-opacity: 0.95;"/></g><rect class="djs-hit djs-hit-all" x="0" y="0" width="30" height="30" style="fill: none; stroke-opacity: 0; stroke: white; stroke-width: 15px;"/><circle cx="15" cy="15" r="21" class="djs-outline" style="fill: none;"/></g></g><g class="djs-group"><g class="djs-element djs-shape" data-element-id="end_label" style="display: block;" transform="matrix(1 0 0 1 1456 104)"><g class="djs-visual"><text lineHeight="1.2" class="djs-label" style="font-family: Arial, sans-serif; font-size: 11px; font-weight: normal; fill: rgb(34, 36, 42);"><tspan x="0" y="9.899999999999999">Done</tspan></text></g><rect class="djs-hit djs-hit-all" x="0" y="0" width="27" height="14" style="fill: none; stroke-opacity: 0; stroke: white; stroke-width: 15px;"/><rect x="-5" y="-5" rx="4" width="37" height="24" class="djs-outline" style="fill: none;"/></g></g><g class="djs-group"><g class="djs-element djs-shape n-event has-note" data-element-id="esc_start" style="display: block;" transform="matrix(1 0 0 1 338 347)"><g class="djs-visual"><circle cx="15" cy="15" r="15" style="stroke-linecap: round; stroke-linejoin: round; stroke: rgb(34, 36, 42); stroke-width: 2px; fill: white; fill-opacity: 0.95;"/></g><rect class="djs-hit djs-hit-all" x="0" y="0" width="30" height="30" style="fill: none; stroke-opacity: 0; stroke: white; stroke-width: 15px;"/><circle cx="15" cy="15" r="20" class="djs-outline" style="fill: none;"/></g></g><g class="djs-group"><g class="djs-element djs-shape" data-element-id="esc_start_label" style="display: block;" transform="matrix(1 0 0 1 327 380)"><g class="djs-visual"><text lineHeight="1.2" class="djs-label" style="font-family: Arial, sans-serif; font-size: 11px; font-weight: normal; fill: rgb(34, 36, 42);"><tspan x="0" y="9.899999999999999">Seat stuck</tspan></text></g><rect class="djs-hit djs-hit-all" x="0" y="0" width="52" height="14" style="fill: none; stroke-opacity: 0; stroke: white; stroke-width: 15px;"/><rect x="-5" y="-5" rx="4" width="62" height="24" class="djs-outline" style="fill: none;"/></g></g><g class="djs-group"><g class="djs-element djs-shape n-architect has-note" data-element-id="esc_arch" style="display: block;" transform="matrix(1 0 0 1 475 333)"><g class="djs-visual"><rect x="0" y="0" width="128" height="58" rx="10" ry="10" style="stroke-linecap: round; stroke-linejoin: round; stroke: rgb(34, 36, 42); stroke-width: 2px; fill: white; fill-opacity: 0.95;"/><text lineHeight="1.2" class="djs-label" style="font-family: Arial, sans-serif; font-size: 12px; font-weight: normal; fill: rgb(34, 36, 42);"><tspan x="47.4892578125" y="32.6">Judge</tspan></text></g><rect class="djs-hit djs-hit-all" x="0" y="0" width="128" height="58" style="fill: none; stroke-opacity: 0; stroke: white; stroke-width: 15px;"/><rect x="-5" y="-5" rx="14" width="138" height="68" class="djs-outline" style="fill: none;"/></g></g><g class="djs-group"><g class="djs-element djs-shape n-gate has-note" data-element-id="esc_gw" style="display: block;" transform="matrix(1 0 0 1 704 341)"><g class="djs-visual"><polygon points="21,0 42,21 21,42 0,21" style="stroke-linecap: round; stroke-linejoin: round; stroke: rgb(34, 36, 42); stroke-width: 2px; fill: white; fill-opacity: 0.95;"/><path d="m 13.44,12.6 6.24,8.16 -6.24,8.16 2.88,0 4.8,-6.269952 4.8,6.269952 2.88,0 -6.24,-8.16 6.24,-8.16 -2.88,0 -4.8,6.269952 -4.8,-6.269952 -2.88,0 z" style="fill: rgb(34, 36, 42); stroke-linecap: round; stroke-linejoin: round; stroke: rgb(34, 36, 42); stroke-width: 1px;"/></g><rect class="djs-hit djs-hit-all" x="0" y="0" width="42" height="42" style="fill: none; stroke-opacity: 0; stroke: white; stroke-width: 15px;"/><rect x="2" y="2" rx="4" width="38" height="38" class="djs-outline" style="transform-box: fill-box; transform: rotate(45deg); transform-origin: center center; fill: none;"/></g></g><g class="djs-group"><g class="djs-element djs-shape" data-element-id="esc_gw_label" style="display: block;" transform="matrix(1 0 0 1 683 320)"><g class="djs-visual"><text lineHeight="1.2" class="djs-label" style="font-family: Arial, sans-serif; font-size: 11px; font-weight: normal; fill: rgb(34, 36, 42);"><tspan x="0" y="9.899999999999999">Rule or escalate?</tspan></text></g><rect class="djs-hit djs-hit-all" x="0" y="0" width="86" height="14" style="fill: none; stroke-opacity: 0; stroke: white; stroke-width: 15px;"/><rect x="-5" y="-5" rx="4" width="96" height="24" class="djs-outline" style="fill: none;"/></g></g><g class="djs-group"><g class="djs-element djs-shape n-event has-note" data-element-id="esc_ruling" style="display: block;" transform="matrix(1 0 0 1 896 347)"><g class="djs-visual"><circle cx="15" cy="15" r="15" style="stroke-linecap: round; stroke-linejoin: round; stroke: rgb(34, 36, 42); stroke-width: 4px; fill: white; fill-opacity: 0.95;"/></g><rect class="djs-hit djs-hit-all" x="0" y="0" width="30" height="30" style="fill: none; stroke-opacity: 0; stroke: white; stroke-width: 15px;"/><circle cx="15" cy="15" r="21" class="djs-outline" style="fill: none;"/></g></g><g class="djs-group"><g class="djs-element djs-shape" data-element-id="esc_ruling_label" style="display: block;" transform="matrix(1 0 0 1 888 380)"><g class="djs-visual"><text lineHeight="1.2" class="djs-label" style="font-family: Arial, sans-serif; font-size: 11px; font-weight: normal; fill: rgb(34, 36, 42);"><tspan x="0" y="9.899999999999999">Resolved</tspan></text></g><rect class="djs-hit djs-hit-all" x="0" y="0" width="46" height="14" style="fill: none; stroke-opacity: 0; stroke: white; stroke-width: 15px;"/><rect x="-5" y="-5" rx="4" width="56" height="24" class="djs-outline" style="fill: none;"/></g></g><g class="djs-group"><g class="djs-element djs-shape n-operator has-note" data-element-id="esc_op" style="display: block;" transform="matrix(1 0 0 1 661 425)"><g class="djs-visual"><rect x="0" y="0" width="128" height="58" rx="10" ry="10" style="stroke-linecap: round; stroke-linejoin: round; stroke: rgb(34, 36, 42); stroke-width: 2px; fill: white; fill-opacity: 0.95;"/><text lineHeight="1.2" class="djs-label" style="font-family: Arial, sans-serif; font-size: 12px; font-weight: normal; fill: rgb(34, 36, 42);"><tspan x="43.9912109375" y="32.6">Answer</tspan></text></g><rect class="djs-hit djs-hit-all" x="0" y="0" width="128" height="58" style="fill: none; stroke-opacity: 0; stroke: white; stroke-width: 15px;"/><rect x="-5" y="-5" rx="14" width="138" height="68" class="djs-outline" style="fill: none;"/></g></g><g class="djs-group"><g class="djs-element djs-connection" data-element-id="flow_0" style="display: block;"><g class="djs-visual"><defs><marker id="marker-864drpkcb6iezrll38tidxe19" viewBox="0 0 20 20" refX="11" refY="10" markerWidth="10" markerHeight="10" orient="auto"><path d="M 1 5 L 11 10 L 1 15 Z" style="stroke-linecap: round; stroke-linejoin: round; stroke: rgb(34, 36, 42); stroke-width: 1px; fill: rgb(34, 36, 42);"/></marker></defs><path data-corner-radius="5" style="fill: none; stroke-linecap: round; stroke-linejoin: round; stroke: rgb(34, 36, 42); stroke-width: 2px; marker-end: url('#marker-864drpkcb6iezrll38tidxe19');" d="M167,101L167,173C167,175.5,169.5,178,172,178L289,178"/></g><rect x="162" y="96" rx="4" width="132" height="87" class="djs-outline" style="fill: none;"/><path d="M167,101L167,178L289,178" class="djs-hit djs-hit-stroke" style="fill: none; stroke-opacity: 0; stroke: white; stroke-width: 15px;"/></g></g><g class="djs-group"><g class="djs-element djs-connection" data-element-id="flow_1" style="display: block;"><g class="djs-visual"><defs><marker id="marker-drqa3qx3rhmyiydgzent32l7e" viewBox="0 0 20 20" refX="11" refY="10" markerWidth="10" markerHeight="10" orient="auto"><path d="M 1 5 L 11 10 L 1 15 Z" style="stroke-linecap: round; stroke-linejoin: round; stroke: rgb(34, 36, 42); stroke-width: 1px; fill: rgb(34, 36, 42);"/></marker></defs><path data-corner-radius="5" style="fill: none; stroke-linecap: round; stroke-linejoin: round; stroke: rgb(34, 36, 42); stroke-width: 2px; marker-end: url('#marker-drqa3qx3rhmyiydgzent32l7e');" d="M338,149L338,107"/></g><rect x="333" y="102" rx="4" width="10" height="52" class="djs-outline" style="fill: none;"/><path d="M338,149L338,107" class="djs-hit djs-hit-stroke" style="fill: none; stroke-opacity: 0; stroke: white; stroke-width: 15px;"/></g></g><g class="djs-group"><g class="djs-element djs-connection" data-element-id="flow_2" style="display: block;"><g class="djs-visual"><defs><marker id="marker-2ec0d4mhfvl5i1mb460p9i60g" viewBox="0 0 20 20" refX="11" refY="10" markerWidth="10" markerHeight="10" orient="auto"><path d="M 1 5 L 11 10 L 1 15 Z" style="stroke-linecap: round; stroke-linejoin: round; stroke: rgb(34, 36, 42); stroke-width: 1px; fill: rgb(34, 36, 42);"/></marker></defs><path data-corner-radius="5" style="fill: none; stroke-linecap: round; stroke-linejoin: round; stroke: rgb(34, 36, 42); stroke-width: 2px; marker-end: url('#marker-2ec0d4mhfvl5i1mb460p9i60g');" d="M368,107L368,149"/></g><rect x="363" y="102" rx="4" width="10" height="52" class="djs-outline" style="fill: none;"/><path d="M368,107L368,149" class="djs-hit djs-hit-stroke" style="fill: none; stroke-opacity: 0; stroke: white; stroke-width: 15px;"/></g></g><g class="djs-group"><g class="djs-element djs-connection" data-element-id="flow_3" style="display: block;"><g class="djs-visual"><defs><marker id="marker-6x4z7wwv4xnrc4cwynd6ujh5r" viewBox="0 0 20 20" refX="11" refY="10" markerWidth="10" markerHeight="10" orient="auto"><path d="M 1 5 L 11 10 L 1 15 Z" style="stroke-linecap: round; stroke-linejoin: round; stroke: rgb(34, 36, 42); stroke-width: 1px; fill: rgb(34, 36, 42);"/></marker></defs><path data-corner-radius="5" style="fill: none; stroke-linecap: round; stroke-linejoin: round; stroke: rgb(34, 36, 42); stroke-width: 2px; marker-end: url('#marker-6x4z7wwv4xnrc4cwynd6ujh5r');" d="M374,86L441,86C443.5,86,446,88.5,446,91L446,265C446,267.5,448.5,270,451,270L475,270"/></g><rect x="369" y="81" rx="4" width="111" height="194" class="djs-outline" style="fill: none;"/><path d="M374,86L446,86L446,270L475,270" class="djs-hit djs-hit-stroke" style="fill: none; stroke-opacity: 0; stroke: white; stroke-width: 15px;"/></g></g><g class="djs-group"><g class="djs-element djs-connection" data-element-id="flow_4" style="display: block;"><g class="djs-visual"><defs><marker id="marker-er4b0gxtml6tzyi3n19pcxime" viewBox="0 0 20 20" refX="11" refY="10" markerWidth="10" markerHeight="10" orient="auto"><path d="M 1 5 L 11 10 L 1 15 Z" style="stroke-linecap: round; stroke-linejoin: round; stroke: rgb(34, 36, 42); stroke-width: 1px; fill: rgb(34, 36, 42);"/></marker></defs><path data-corner-radius="5" style="fill: none; stroke-linecap: round; stroke-linejoin: round; stroke: rgb(34, 36, 42); stroke-width: 2px; marker-end: url('#marker-er4b0gxtml6tzyi3n19pcxime');" d="M539,241L539,107"/></g><rect x="534" y="102" rx="4" width="10" height="144" class="djs-outline" style="fill: none;"/><path d="M539,241L539,107" class="djs-hit djs-hit-stroke" style="fill: none; stroke-opacity: 0; stroke: white; stroke-width: 15px;"/></g></g><g class="djs-group"><g class="djs-element djs-connection" data-element-id="flow_5" style="display: block;"><g class="djs-visual"><defs><marker id="marker-acs8il9f99uclgjzg1reinm9e" viewBox="0 0 20 20" refX="11" refY="10" markerWidth="10" markerHeight="10" orient="auto"><path d="M 1 5 L 11 10 L 1 15 Z" style="stroke-linecap: round; stroke-linejoin: round; stroke: rgb(34, 36, 42); stroke-width: 1px; fill: rgb(34, 36, 42);"/></marker></defs><path data-corner-radius="5" style="fill: none; stroke-linecap: round; stroke-linejoin: round; stroke: rgb(34, 36, 42); stroke-width: 2px; marker-end: url('#marker-acs8il9f99uclgjzg1reinm9e');" d="M539,107L539,173C539,175.5,536.5,178,534,178L417,178"/></g><rect x="412" y="102" rx="4" width="132" height="81" class="djs-outline" style="fill: none;"/><path d="M539,107L539,178L417,178" class="djs-hit djs-hit-stroke" style="fill: none; stroke-opacity: 0; stroke: white; stroke-width: 15px;"/></g></g><g class="djs-group"><g class="djs-element djs-connection" data-element-id="flow_6" style="display: block;"><g class="djs-visual"><defs><marker id="marker-1fxbi5y2gwmlpgmw53ybq32ia" viewBox="0 0 20 20" refX="11" refY="10" markerWidth="10" markerHeight="10" orient="auto"><path d="M 1 5 L 11 10 L 1 15 Z" style="stroke-linecap: round; stroke-linejoin: round; stroke: rgb(34, 36, 42); stroke-width: 1px; fill: rgb(34, 36, 42);"/></marker></defs><path data-corner-radius="5" style="fill: none; stroke-linecap: round; stroke-linejoin: round; stroke: rgb(34, 36, 42); stroke-width: 2px; marker-end: url('#marker-1fxbi5y2gwmlpgmw53ybq32ia');" d="M539,107L539,173C539,175.5,541.5,178,544,178L661,178"/></g><rect x="534" y="102" rx="4" width="132" height="81" class="djs-outline" style="fill: none;"/><path d="M539,107L539,178L661,178" class="djs-hit djs-hit-stroke" style="fill: none; stroke-opacity: 0; stroke: white; stroke-width: 15px;"/></g></g><g class="djs-group"><g class="djs-element djs-connection" data-element-id="flow_7" style="display: block;"><g class="djs-visual"><defs><marker id="marker-8eogafodzssi0wnay4xuh6143" viewBox="0 0 20 20" refX="11" refY="10" markerWidth="10" markerHeight="10" orient="auto"><path d="M 1 5 L 11 10 L 1 15 Z" style="stroke-linecap: round; stroke-linejoin: round; stroke: rgb(34, 36, 42); stroke-width: 1px; fill: rgb(34, 36, 42);"/></marker></defs><path data-corner-radius="5" style="fill: none; stroke-linecap: round; stroke-linejoin: round; stroke: rgb(34, 36, 42); stroke-width: 2px; marker-end: url('#marker-8eogafodzssi0wnay4xuh6143');" d="M710,149L710,107"/></g><rect x="705" y="102" rx="4" width="10" height="52" class="djs-outline" style="fill: none;"/><path d="M710,149L710,107" class="djs-hit djs-hit-stroke" style="fill: none; stroke-opacity: 0; stroke: white; stroke-width: 15px;"/></g></g><g class="djs-group"><g class="djs-element djs-connection" data-element-id="flow_8" style="display: block;"><g class="djs-visual"><defs><marker id="marker-5yhnlj5ic7q4kclkyraielhl1" viewBox="0 0 20 20" refX="11" refY="10" markerWidth="10" markerHeight="10" orient="auto"><path d="M 1 5 L 11 10 L 1 15 Z" style="stroke-linecap: round; stroke-linejoin: round; stroke: rgb(34, 36, 42); stroke-width: 1px; fill: rgb(34, 36, 42);"/></marker></defs><path data-corner-radius="5" style="fill: none; stroke-linecap: round; stroke-linejoin: round; stroke: rgb(34, 36, 42); stroke-width: 2px; marker-end: url('#marker-5yhnlj5ic7q4kclkyraielhl1');" d="M740,107L740,149"/></g><rect x="735" y="102" rx="4" width="10" height="52" class="djs-outline" style="fill: none;"/><path d="M740,107L740,149" class="djs-hit djs-hit-stroke" style="fill: none; stroke-opacity: 0; stroke: white; stroke-width: 15px;"/></g></g><g class="djs-group"><g class="djs-element djs-connection" data-element-id="flow_9" style="display: block;"><g class="djs-visual"><defs><marker id="marker-dk3qykudvwuf45zj929e43p35" viewBox="0 0 20 20" refX="11" refY="10" markerWidth="10" markerHeight="10" orient="auto"><path d="M 1 5 L 11 10 L 1 15 Z" style="stroke-linecap: round; stroke-linejoin: round; stroke: rgb(34, 36, 42); stroke-width: 1px; fill: rgb(34, 36, 42);"/></marker></defs><path data-corner-radius="5" style="fill: none; stroke-linecap: round; stroke-linejoin: round; stroke: rgb(34, 36, 42); stroke-width: 2px; marker-end: url('#marker-dk3qykudvwuf45zj929e43p35');" d="M746,86L847,86"/></g><rect x="741" y="81" rx="4" width="111" height="10" class="djs-outline" style="fill: none;"/><path d="M746,86L847,86" class="djs-hit djs-hit-stroke" style="fill: none; stroke-opacity: 0; stroke: white; stroke-width: 15px;"/></g></g><g class="djs-group"><g class="djs-element djs-connection" data-element-id="flow_10" style="display: block;"><g class="djs-visual"><defs><marker id="marker-23230yjqxc8xet1wjrgapa7ky" viewBox="0 0 20 20" refX="11" refY="10" markerWidth="10" markerHeight="10" orient="auto"><path d="M 1 5 L 11 10 L 1 15 Z" style="stroke-linecap: round; stroke-linejoin: round; stroke: rgb(34, 36, 42); stroke-width: 1px; fill: rgb(34, 36, 42);"/></marker></defs><path data-corner-radius="5" style="fill: none; stroke-linecap: round; stroke-linejoin: round; stroke: rgb(34, 36, 42); stroke-width: 2px; marker-end: url('#marker-23230yjqxc8xet1wjrgapa7ky');" d="M911,115L911,173C911,175.5,913.5,178,916,178L1033,178"/></g><rect x="906" y="110" rx="4" width="132" height="73" class="djs-outline" style="fill: none;"/><path d="M911,115L911,178L1033,178" class="djs-hit djs-hit-stroke" style="fill: none; stroke-opacity: 0; stroke: white; stroke-width: 15px;"/></g></g><g class="djs-group"><g class="djs-element djs-connection" data-element-id="flow_11" style="display: block;"><g class="djs-visual"><defs><marker id="marker-6v2wqw00i6oees25r844vhpao" viewBox="0 0 20 20" refX="11" refY="10" markerWidth="10" markerHeight="10" orient="auto"><path d="M 1 5 L 11 10 L 1 15 Z" style="stroke-linecap: round; stroke-linejoin: round; stroke: rgb(34, 36, 42); stroke-width: 1px; fill: rgb(34, 36, 42);"/></marker></defs><path data-corner-radius="5" style="fill: none; stroke-linecap: round; stroke-linejoin: round; stroke: rgb(34, 36, 42); stroke-width: 2px; marker-end: url('#marker-6v2wqw00i6oees25r844vhpao');" d="M1082,149L1082,107"/></g><rect x="1077" y="102" rx="4" width="10" height="52" class="djs-outline" style="fill: none;"/><path d="M1082,149L1082,107" class="djs-hit djs-hit-stroke" style="fill: none; stroke-opacity: 0; stroke: white; stroke-width: 15px;"/></g></g><g class="djs-group"><g class="djs-element djs-connection" data-element-id="flow_12" style="display: block;"><g class="djs-visual"><defs><marker id="marker-bazsdke1okjpjlto98bmb2r8y" viewBox="0 0 20 20" refX="11" refY="10" markerWidth="10" markerHeight="10" orient="auto"><path d="M 1 5 L 11 10 L 1 15 Z" style="stroke-linecap: round; stroke-linejoin: round; stroke: rgb(34, 36, 42); stroke-width: 1px; fill: rgb(34, 36, 42);"/></marker></defs><path data-corner-radius="5" style="fill: none; stroke-linecap: round; stroke-linejoin: round; stroke: rgb(34, 36, 42); stroke-width: 2px; marker-end: url('#marker-bazsdke1okjpjlto98bmb2r8y');" d="M1112,107L1112,149"/></g><rect x="1107" y="102" rx="4" width="10" height="52" class="djs-outline" style="fill: none;"/><path d="M1112,107L1112,149" class="djs-hit djs-hit-stroke" style="fill: none; stroke-opacity: 0; stroke: white; stroke-width: 15px;"/></g></g><g class="djs-group"><g class="djs-element djs-connection" data-element-id="flow_13" style="display: block;"><g class="djs-visual"><defs><marker id="marker-3sakx7kix0nu6n1e9otmakydm" viewBox="0 0 20 20" refX="11" refY="10" markerWidth="10" markerHeight="10" orient="auto"><path d="M 1 5 L 11 10 L 1 15 Z" style="stroke-linecap: round; stroke-linejoin: round; stroke: rgb(34, 36, 42); stroke-width: 1px; fill: rgb(34, 36, 42);"/></marker></defs><path data-corner-radius="5" style="fill: none; stroke-linecap: round; stroke-linejoin: round; stroke: rgb(34, 36, 42); stroke-width: 2px; marker-end: url('#marker-3sakx7kix0nu6n1e9otmakydm');" d="M1118,86L1219,86"/></g><rect x="1113" y="81" rx="4" width="111" height="10" class="djs-outline" style="fill: none;"/><path d="M1118,86L1219,86" class="djs-hit djs-hit-stroke" style="fill: none; stroke-opacity: 0; stroke: white; stroke-width: 15px;"/></g></g><g class="djs-group"><g class="djs-element djs-connection" data-element-id="flow_14" style="display: block;"><g class="djs-visual"><defs><marker id="marker-be40kwnlrmcpre6c0nkbhn23s" viewBox="0 0 20 20" refX="11" refY="10" markerWidth="10" markerHeight="10" orient="auto"><path d="M 1 5 L 11 10 L 1 15 Z" style="stroke-linecap: round; stroke-linejoin: round; stroke: rgb(34, 36, 42); stroke-width: 1px; fill: rgb(34, 36, 42);"/></marker></defs><path data-corner-radius="5" style="fill: none; stroke-linecap: round; stroke-linejoin: round; stroke: rgb(34, 36, 42); stroke-width: 2px; marker-end: url('#marker-be40kwnlrmcpre6c0nkbhn23s');" d="M1347,86L1454,86"/></g><rect x="1342" y="81" rx="4" width="117" height="10" class="djs-outline" style="fill: none;"/><path d="M1347,86L1454,86" class="djs-hit djs-hit-stroke" style="fill: none; stroke-opacity: 0; stroke: white; stroke-width: 15px;"/></g></g><g class="djs-group"><g class="djs-element djs-connection" data-element-id="flow_15" style="display: block;"><g class="djs-visual"><defs><marker id="marker-clocoay2rkbworm5ijzmy7hh6" viewBox="0 0 20 20" refX="11" refY="10" markerWidth="10" markerHeight="10" orient="auto"><path d="M 1 5 L 11 10 L 1 15 Z" style="stroke-linecap: round; stroke-linejoin: round; stroke: rgb(34, 36, 42); stroke-width: 1px; fill: rgb(34, 36, 42);"/></marker></defs><path data-corner-radius="5" style="fill: none; stroke-linecap: round; stroke-linejoin: round; stroke: rgb(34, 36, 42); stroke-width: 2px; marker-end: url('#marker-clocoay2rkbworm5ijzmy7hh6');" d="M368,362L475,362"/></g><rect x="363" y="357" rx="4" width="117" height="10" class="djs-outline" style="fill: none;"/><path d="M368,362L475,362" class="djs-hit djs-hit-stroke" style="fill: none; stroke-opacity: 0; stroke: white; stroke-width: 15px;"/></g></g><g class="djs-group"><g class="djs-element djs-connection" data-element-id="flow_16" style="display: block;"><g class="djs-visual"><defs><marker id="marker-075dsq9rp3t8i3qu0ur0z2g5r" viewBox="0 0 20 20" refX="11" refY="10" markerWidth="10" markerHeight="10" orient="auto"><path d="M 1 5 L 11 10 L 1 15 Z" style="stroke-linecap: round; stroke-linejoin: round; stroke: rgb(34, 36, 42); stroke-width: 1px; fill: rgb(34, 36, 42);"/></marker></defs><path data-corner-radius="5" style="fill: none; stroke-linecap: round; stroke-linejoin: round; stroke: rgb(34, 36, 42); stroke-width: 2px; marker-end: url('#marker-075dsq9rp3t8i3qu0ur0z2g5r');" d="M603,362L704,362"/></g><rect x="598" y="357" rx="4" width="111" height="10" class="djs-outline" style="fill: none;"/><path d="M603,362L704,362" class="djs-hit djs-hit-stroke" style="fill: none; stroke-opacity: 0; stroke: white; stroke-width: 15px;"/></g></g><g class="djs-group"><g class="djs-element djs-connection" data-element-id="flow_17" style="display: block;"><g class="djs-visual"><defs><marker id="marker-7uaandejcdg4rsyteoc0g58mi" viewBox="0 0 20 20" refX="11" refY="10" markerWidth="10" markerHeight="10" orient="auto"><path d="M 1 5 L 11 10 L 1 15 Z" style="stroke-linecap: round; stroke-linejoin: round; stroke: rgb(34, 36, 42); stroke-width: 1px; fill: rgb(34, 36, 42);"/></marker></defs><path data-corner-radius="5" style="fill: none; stroke-linecap: round; stroke-linejoin: round; stroke: rgb(34, 36, 42); stroke-width: 2px; marker-end: url('#marker-7uaandejcdg4rsyteoc0g58mi');" d="M746,362L896,362"/></g><rect x="741" y="357" rx="4" width="160" height="10" class="djs-outline" style="fill: none;"/><path d="M746,362L896,362" class="djs-hit djs-hit-stroke" style="fill: none; stroke-opacity: 0; stroke: white; stroke-width: 15px;"/></g></g><g class="djs-group"><g class="djs-element djs-connection" data-element-id="flow_18" style="display: block;"><g class="djs-visual"><defs><marker id="marker-8nza9un4g65wtbypi02yl4ijk" viewBox="0 0 20 20" refX="11" refY="10" markerWidth="10" markerHeight="10" orient="auto"><path d="M 1 5 L 11 10 L 1 15 Z" style="stroke-linecap: round; stroke-linejoin: round; stroke: rgb(34, 36, 42); stroke-width: 1px; fill: rgb(34, 36, 42);"/></marker></defs><path data-corner-radius="5" style="fill: none; stroke-linecap: round; stroke-linejoin: round; stroke: rgb(34, 36, 42); stroke-width: 2px; marker-end: url('#marker-8nza9un4g65wtbypi02yl4ijk');" d="M725,383L725,425"/></g><rect x="720" y="378" rx="4" width="10" height="52" class="djs-outline" style="fill: none;"/><path d="M725,383L725,425" class="djs-hit djs-hit-stroke" style="fill: none; stroke-opacity: 0; stroke: white; stroke-width: 15px;"/></g></g><g class="djs-group"><g class="djs-element djs-connection" data-element-id="flow_19" style="display: block;"><g class="djs-visual"><defs><marker id="marker-1abtugnmydq4h2xpajufwdd1m" viewBox="0 0 20 20" refX="11" refY="10" markerWidth="10" markerHeight="10" orient="auto"><path d="M 1 5 L 11 10 L 1 15 Z" style="stroke-linecap: round; stroke-linejoin: round; stroke: rgb(34, 36, 42); stroke-width: 1px; fill: rgb(34, 36, 42);"/></marker></defs><path data-corner-radius="5" style="fill: none; stroke-linecap: round; stroke-linejoin: round; stroke: rgb(34, 36, 42); stroke-width: 2px; marker-end: url('#marker-1abtugnmydq4h2xpajufwdd1m');" d="M661,454L544,454C541.5,454,539,451.5,539,449L539,391"/></g><rect x="534" y="386" rx="4" width="132" height="73" class="djs-outline" style="fill: none;"/><path d="M661,454L539,454L539,391" class="djs-hit djs-hit-stroke" style="fill: none; stroke-opacity: 0; stroke: white; stroke-width: 15px;"/></g></g></g></g>
      </g>
    </g>
  </g>
  <!-- title bar -->
  <rect x="0" y="0" width="720" height="34" fill="#FDFAF5"/>
  <line x1="0" y1="34" x2="720" y2="34" stroke="#E7E5E4"/>
  <circle cx="18" cy="17" r="5" fill="#E2711D"/>
  <circle cx="36" cy="17" r="5" fill="#F5C9A1"/>
  <circle cx="54" cy="17" r="5" fill="#FDECD8"/>
  <rect x="240" y="9" width="240" height="17" rx="8.5" fill="#FEF3E2" stroke="#E7E5E4"/>
  <text x="360" y="21" text-anchor="middle" font-size="10.5" fill="#756D68" font-family="'Geist Mono',ui-monospace,monospace">tron.42labs.io/workflow</text>
</g>
<rect x="0.5" y="0.5" width="719" height="451" rx="11" fill="none" stroke="#E7E5E4"/>
</svg>
