<svg xmlns="http://www.w3.org/2000/svg" viewBox="0 0 150 27" fill="none" role="img" aria-label="TRON">
  <style>
    .logo__mark { fill: #E2711D; }
    .logo__type { fill: #CC5D0A; }
    @media (prefers-color-scheme: dark) {
      .logo__mark { fill: #00FFA7; }
      .logo__type { fill: #00FFA7; }
    }
  </style>
  <path class="logo__mark" d="M23.5389 25.5945C23.5389 26.2534 23.004 26.7876 22.3442 26.7876H20.7762C20.716 26.7876 20.6567 26.7831 20.5989 26.7745C20.541 26.7831 20.4818 26.7876 20.4215 26.7876H1.19468C0.534876 26.7876 0 26.2534 0 25.5945V24.0659C0 23.407 0.534876 22.8728 1.19468 22.8728H8.82942V16.2481C8.82942 15.4791 9.45284 14.8557 10.2219 14.8557H11.3944C12.1634 14.8557 12.7868 15.4791 12.7868 16.2482V22.8728H19.5815V16.2481C19.5815 15.4791 20.2049 14.8557 20.974 14.8557H22.1465C22.9155 14.8557 23.5389 15.4791 23.5389 16.2482V25.5945Z" />
  <path class="logo__mark" d="M11.5921 0.279053C11.6524 0.279053 11.7116 0.283274 11.7695 0.291869C11.8273 0.283274 11.8865 0.279053 11.9468 0.279053H31.1736C31.8334 0.279053 32.3683 0.813209 32.3683 1.47212V3.00075C32.3683 3.65966 31.8334 4.19382 31.1736 4.19382H23.5389V10.5575C23.5389 11.3265 22.9155 11.95 22.1465 11.95H20.974C20.2049 11.95 19.5815 11.3265 19.5815 10.5575V4.19382H12.7868V10.5575C12.7868 11.3265 12.1634 11.95 11.3944 11.95H10.2219C9.45284 11.95 8.82942 11.3265 8.82942 10.5575V1.47212C8.82942 0.813209 9.3643 0.279053 10.0241 0.279053H11.5921Z" />
  <path class="logo__type" d="M89.728 8.75482C89.728 9.78958 89.6001 10.7139 89.3443 11.5278C89.0886 12.3416 88.7398 13.0625 88.298 13.6903C87.8678 14.3065 87.3678 14.8355 86.7981 15.2773C86.2284 15.7191 85.6297 16.0854 85.0018 16.376C84.3856 16.6551 83.7578 16.8585 83.1183 16.9864C82.4905 17.1143 81.8975 17.1783 81.3395 17.1783L90.8093 25.3575H83.7985L74.3461 17.1783H72.201C71.5846 17.1783 71.0848 16.6785 71.0848 16.0621V13.7601C71.0848 13.1436 71.5846 12.6439 72.201 12.6439H81.3395C81.9092 12.5974 82.4265 12.4811 82.8916 12.2951C83.3683 12.0975 83.7752 11.8359 84.1124 11.5103C84.4612 11.1848 84.7286 10.7953 84.9146 10.3418C85.1007 9.87678 85.1937 9.34777 85.1937 8.75482V5.89469C85.1937 5.6389 85.1588 5.44706 85.089 5.31917C85.0309 5.17965 84.9495 5.08083 84.8449 5.02269C84.7519 4.95293 84.6472 4.91224 84.531 4.90061C84.4263 4.88899 84.3275 4.88317 84.2345 4.88317H69.2711V25.3575H64.7367V2.63344C64.7367 2.31952 64.7949 2.02304 64.9111 1.74401C65.0274 1.46497 65.1844 1.22081 65.382 1.01153C65.5913 0.802254 65.8354 0.639483 66.1145 0.523217C66.3935 0.406952 66.6958 0.348819 67.0214 0.348819H84.2345C85.246 0.348819 86.1005 0.534844 86.7981 0.906893C87.4957 1.26732 88.0596 1.72657 88.4898 2.28464C88.9316 2.83109 89.2455 3.42404 89.4315 4.0635C89.6292 4.70296 89.728 5.30173 89.728 5.85981V8.75482Z" />
  <path class="logo__type" d="M51.3778 25.5668H46.8435V15.9052C46.8435 15.2887 47.3432 14.789 47.9596 14.789H50.2617C50.8781 14.789 51.3778 15.2887 51.3778 15.9052V25.5668Z" />
  <path class="logo__type" d="M61.3709 3.9763C61.3709 4.59274 60.8711 5.09245 60.2547 5.09245H51.3778V10.8825C51.3778 11.4989 50.8781 11.9986 50.2617 11.9986H47.9596C47.3432 11.9986 46.8435 11.4989 46.8435 10.8825V5.09245H37.9492C37.3327 5.09245 36.833 4.59274 36.833 3.9763V1.67425C36.833 1.05781 37.3327 0.558097 37.9492 0.558097H60.2547C60.8711 0.558097 61.3709 1.05781 61.3709 1.67425V3.9763Z" />
  <path class="logo__type" d="M98.5875 15.2424C98.5875 16.1377 98.727 16.9515 99.006 17.684C99.2967 18.4049 99.7036 19.0269 100.227 19.5501C100.75 20.0616 101.372 20.4628 102.093 20.7534C102.825 21.0325 103.633 21.172 104.517 21.172H110.621C111.505 21.172 112.307 21.0325 113.028 20.7534C113.76 20.4628 114.388 20.0616 114.911 19.5501C115.434 19.0269 115.835 18.4049 116.114 17.684C116.405 16.9515 116.55 16.1377 116.55 15.2424C116.55 14.992 116.753 14.789 117.004 14.789H120.631C120.882 14.789 121.085 14.992 121.085 15.2424C121.085 16.7655 120.823 18.1665 120.3 19.4454C119.777 20.7244 119.05 21.8289 118.12 22.759C117.19 23.6891 116.085 24.4158 114.807 24.939C113.539 25.4506 112.156 25.7063 110.656 25.7063H104.517C103.017 25.7063 101.628 25.4506 100.349 24.939C99.07 24.4158 97.9654 23.6891 97.0353 22.759C96.1052 21.8289 95.3727 20.7244 94.8379 19.4454C94.3147 18.1665 94.0531 16.7655 94.0531 15.2424C94.0531 14.992 94.2561 14.789 94.5065 14.789H98.134C98.3844 14.789 98.5875 14.992 98.5875 15.2424Z" />
  <path class="logo__type" d="M110.656 2.20737e-05C112.156 2.20737e-05 113.539 0.26162 114.807 0.784815C116.085 1.30801 117.19 2.03467 118.12 2.96479C119.05 3.88329 119.777 4.98781 120.3 6.27836C120.823 7.55728 121.085 8.95247 121.085 10.4639V10.8825C121.085 11.4989 120.585 11.9986 119.969 11.9986H117.667C117.05 11.9986 116.55 11.4989 116.55 10.8825V10.4639C116.55 9.56868 116.405 8.76063 116.114 8.03978C115.835 7.30731 115.434 6.68529 114.911 6.17372C114.4 5.65053 113.778 5.24941 113.045 4.97037C112.324 4.67971 111.528 4.53438 110.656 4.53438H104.517C103.633 4.53438 102.825 4.67971 102.093 4.97037C101.372 5.24941 100.75 5.65053 100.227 6.17372C99.7036 6.68529 99.2967 7.30731 99.006 8.03978C98.727 8.76063 98.5875 9.56868 98.5875 10.4639V10.8825C98.5875 11.4989 98.0877 11.9986 97.4713 11.9986H95.1693C94.5528 11.9986 94.0531 11.4989 94.0531 10.8825V10.4639C94.0531 8.95247 94.3147 7.55728 94.8379 6.27836C95.3727 4.98781 96.1052 3.88329 97.0353 2.96479C97.9654 2.03467 99.07 1.30801 100.349 0.784815C101.628 0.26162 103.017 2.20737e-05 104.517 2.20737e-05H110.656Z" />
  <path class="logo__type" d="M126.404 0.170605C126.834 -0.00378947 127.276 -0.044484 127.729 0.0485266C128.183 0.129911 128.572 0.339198 128.898 0.676361L142.157 14.5075L142.142 14.5225L143.822 16.245L145.466 17.9592V17.929L150 22.5756V23.4179C150 23.7434 149.936 24.0457 149.808 24.3248C149.692 24.6038 149.529 24.848 149.32 25.0572C149.122 25.2549 148.884 25.4119 148.605 25.5281C148.326 25.6444 148.029 25.7025 147.715 25.7025C147.436 25.7025 147.152 25.6502 146.861 25.5456C146.582 25.4409 146.332 25.2723 146.111 25.0398L129.543 7.73949V25.3537H125.009V2.28083C125.009 1.81577 125.137 1.3972 125.392 1.02516C125.66 0.641489 125.997 0.356628 126.404 0.170605Z" />
  <path class="logo__type" d="M148.884 0.345004C149.5 0.345004 150 0.844721 150 1.46115V15.8381C150 16.8391 148.784 17.3338 148.085 16.6175L145.783 14.2584C145.58 14.05 145.466 13.7703 145.466 13.4791V1.46115C145.466 0.844721 145.965 0.345004 146.582 0.345004H148.884Z" />
</svg>
