<?xml version="1.0" encoding="UTF-8" standalone="no"?>
<!DOCTYPE svg PUBLIC "-//W3C//DTD SVG 1.1//EN" "http://www.w3.org/Graphics/SVG/1.1/DTD/svg11.dtd">
<svg width="100%" height="100%" viewBox="0 -22.5 534 534" version="1.1" xmlns="http://www.w3.org/2000/svg" xmlns:xlink="http://www.w3.org/1999/xlink" xml:space="preserve" xmlns:serif="http://www.serif.com/" style="fill-rule:evenodd;clip-rule:evenodd;stroke-linejoin:round;stroke-miterlimit:2;"><style>path,rect{fill:#000}@media (prefers-color-scheme:dark){path,rect{fill:#fff}}</style>
    <g transform="matrix(1,0,0,1,-224.203,-246.082)">
        <g transform="matrix(0.1,0,0,-0.1,0,1080)">
            <path d="M4745,8321C4585,8275 4442,8155 4372,8009C4321,7902 4306,7837 4307,7730C4310,7513 4443,7299 4635,7205C4741,7152 4815,7137 4939,7142C5064,7147 5144,7171 5238,7232C5445,7366 5553,7615 5506,7851C5479,7982 5432,8070 5336,8166C5249,8253 5174,8297 5065,8325C4985,8345 4822,8344 4745,8321Z"/>
            <path d="M4382,7238C4352,7200 2920,4898 2920,4888C2920,4866 3191,4697 3216,4702C3224,4704 3545,5209 3930,5825L4631,6945L4625,7093L4560,7132C4524,7154 4474,7189 4448,7211C4396,7255 4396,7255 4382,7238Z"/>
            <path d="M5389,7224C5376,7209 5331,7175 5290,7149C5186,7081 5190,7087 5190,7017C5190,6971 5196,6945 5213,6915C5239,6871 6590,4708 6597,4700C6599,4698 6613,4701 6628,4706C6658,4718 6847,4834 6887,4865L6912,4886L6174,6068C5767,6718 5430,7250 5424,7250C5418,7250 5403,7238 5389,7224Z"/>
            <path d="M4730,7051L4730,4430L4913,4432L5095,4435L5098,5744L5100,7052L5028,7044C4936,7033 4893,7033 4803,7043L4730,7051Z"/>
            <path d="M5690,7040C5690,7035 5801,6852 5937,6635L6184,6240L6390,6240L6390,7050L6040,7050C5815,7050 5690,7046 5690,7040Z"/>
            <path d="M6494,6867C6492,6860 6491,6756 6492,6635L6495,6415L6868,6412L7240,6410L7240,6880L6870,6880C6579,6880 6498,6877 6494,6867Z"/>
            <rect x="7340" y="6480" width="240" height="330"/>
            <path d="M3900,5588C3874,5545 3874,5543 3911,5524C4052,5452 4390,5354 4568,5334L4631,5327L4628,5376C4625,5420 4622,5425 4600,5428C4449,5446 4214,5508 4045,5576C3985,5600 3932,5620 3928,5620C3923,5620 3911,5605 3900,5588Z"/>
            <path d="M5810,5589C5695,5538 5504,5480 5363,5454C5287,5440 5218,5425 5210,5421C5188,5410 5184,5342 5205,5334C5253,5315 5600,5398 5795,5475C5965,5541 5955,5533 5928,5581C5916,5602 5899,5620 5891,5619C5882,5618 5846,5605 5810,5589Z"/>
            <path d="M2592,4894C2551,4865 2252,4492 2245,4460C2233,4403 2256,4364 2338,4301C2767,3976 3322,3711 3859,3576C4000,3540 4201,3502 4384,3478C4604,3448 5185,3445 5408,3473C6099,3559 6704,3779 7265,4147C7558,4340 7606,4393 7571,4482C7557,4515 7254,4882 7227,4897C7184,4921 7126,4913 7074,4875C6918,4765 6779,4675 6658,4606C6332,4422 5932,4279 5556,4210C5391,4180 5394,4179 5375,4248C5366,4279 5357,4311 5355,4318C5352,4327 5254,4330 4911,4330L4471,4330L4461,4293C4456,4272 4448,4242 4444,4227C4441,4211 4430,4196 4422,4192C4401,4184 4224,4215 4057,4256C3605,4367 3156,4578 2775,4859C2715,4903 2699,4910 2660,4910C2635,4910 2604,4903 2592,4894ZM3371,4270C3400,4254 3395,4212 3348,4104C3299,3992 3274,3968 3235,3994C3221,4003 3210,4017 3210,4025C3210,4054 3303,4251 3323,4265C3348,4283 3346,4283 3371,4270ZM6499,4271C6525,4257 6614,4046 6606,4016C6599,3987 6569,3975 6542,3989C6522,4000 6430,4196 6430,4228C6430,4240 6440,4256 6452,4264C6478,4283 6477,4283 6499,4271ZM4145,4010C4162,3991 4162,3986 4140,3875C4114,3744 4097,3713 4057,3724C4043,3727 4028,3739 4025,3751C4021,3762 4028,3822 4041,3883C4070,4022 4100,4059 4145,4010ZM5742,4013C5758,3994 5800,3820 5800,3770C5800,3751 5793,3737 5781,3730C5731,3704 5715,3727 5684,3869L5658,3994L5680,4012C5708,4035 5723,4035 5742,4013ZM4948,3928C4956,3920 4960,3874 4960,3789C4960,3686 4957,3658 4944,3646C4923,3625 4904,3626 4880,3650C4862,3668 4860,3683 4860,3789C4860,3884 4863,3912 4876,3924C4894,3943 4931,3945 4948,3928Z"/>
        </g>
    </g>
</svg>
